<svg xmlns="http://www.w3.org/2000/svg" xml:space="preserve" height="512px" viewBox="0 0 512 512" width="512px" version="1.1" y="0px" x="0px" xmlns:xlink="http://www.w3.org/1999/xlink" enable-background="new 0 0 512 512">
	<path d="m480 32.2c-21.7 21.2-42.9 43-64.5 64.3-1.05 1.23-2.26-0.16-3.09-0.85-24.5-24-54.6-42.3-87.2-52.8-37.6-12.2-78.4-14.1-117-5.59-68.7 14.7-129 64.1-156 129 0.031 0.014 0.062 0.025 0.093 0.039-2.3 4.54-3.6 9.67-3.6 15.1 0 18.5 15 33.5 33.5 33.5 15.8 0 29.1-11 32.6-25.8 19.8-42 58.8-74.4 104-85.5 52.2-13.2 111 1.33 149 40-22 21.8-44.4 43.3-66.3 65.3 59.5-0.32 119-0.141 179-0.09-2-57-2-116-2-175z"/>
	<path d="m432 298c-14.6 0-27 9.38-31.6 22.5-0.009-0.004-0.019-0.008-0.027-0.012-19.1 42.6-57.6 76.2-103 88.2-52.8 14.3-113 0.299-152-39.1 21.9-21.8 44.4-43 66.2-64.9-59.7 0.049-119 0.029-179 0.01-0.14 58.6-0.159 117 0.011 176 21.9-21.9 43.8-43.9 65.8-65.7 14.1 13.8 29.8 26.1 46.9 35.9 54.7 32 123 38.6 183 17.9 57.5-19.3 106-63.2 131-118 3.64-5.36 5.78-11.8 5.78-18.8 0-19-15-33-33-33z"/>
</svg>